<svg width="25" height="25" viewBox="0 0 25 25" fill="none" xmlns="http://www.w3.org/2000/svg">
<rect width="25" height="25"/>
    <path fill-rule="evenodd" clip-rule="evenodd" d="M1.90381 4.99988C1.90381 4.30177 2.46974 3.73584 3.16785 3.73584H21.2016C21.8997 3.73584 22.4656 4.30177 22.4656 4.99988C22.4656 5.698 21.8997 6.26393 21.2016 6.26393H3.16785C2.46974 6.26393 1.90381 5.698 1.90381 4.99988Z" fill="black"/>
    <path fill-rule="evenodd" clip-rule="evenodd" d="M1.73584 12.5841C1.73584 11.886 2.30177 11.3201 2.99988 11.3201H21.0336C21.7317 11.3201 22.2976 11.886 22.2976 12.5841C22.2976 13.2822 21.7317 13.8482 21.0336 13.8482H2.99988C2.30177 13.8482 1.73584 13.2822 1.73584 12.5841Z" fill="black"/>
    <path fill-rule="evenodd" clip-rule="evenodd" d="M2.07275 19.9999C2.07275 19.3018 2.63869 18.7358 3.3368 18.7358H21.3705C22.0686 18.7358 22.6346 19.3018 22.6346 19.9999C22.6346 20.698 22.0686 21.2639 21.3705 21.2639H3.3368C2.63869 21.2639 2.07275 20.698 2.07275 19.9999Z" fill="black"/>
</svg>
